<svg width="16" height="16" viewBox="0 0 16 16" fill="none" xmlns="http://www.w3.org/2000/svg">
<path d="M15.547 13.9531C15.6518 14.0576 15.735 14.1818 15.7918 14.3186C15.8486 14.4553 15.8778 14.6019 15.8778 14.75C15.8778 14.8981 15.8486 15.0447 15.7918 15.1814C15.735 15.3182 15.6518 15.4424 15.547 15.5469C15.3347 15.7564 15.0484 15.8739 14.7501 15.8739C14.4518 15.8739 14.1655 15.7564 13.9532 15.5469L8.00008 9.59375L2.04695 15.5469C1.83466 15.7564 1.54837 15.8739 1.25008 15.8739C0.951785 15.8739 0.665497 15.7564 0.453202 15.5469C0.348322 15.4424 0.265105 15.3182 0.208324 15.1814C0.151543 15.0447 0.122314 14.8981 0.122314 14.75C0.122314 14.6019 0.151543 14.4553 0.208324 14.3186C0.265105 14.1818 0.348322 14.0576 0.453202 13.9531L6.40633 8L0.453202 2.04687C0.241857 1.83553 0.123125 1.54888 0.123125 1.25C0.123125 1.10201 0.152275 0.955461 0.208909 0.818733C0.265544 0.682005 0.348555 0.557771 0.453202 0.453123C0.557849 0.348476 0.682083 0.265466 0.818811 0.208831C0.955539 0.152196 1.10208 0.123047 1.25008 0.123047C1.54896 0.123047 1.83561 0.241779 2.04695 0.453123L8.00008 6.40625L13.9532 0.453123C14.1645 0.241779 14.4512 0.123047 14.7501 0.123047C15.049 0.123047 15.3356 0.241779 15.547 0.453123C15.7583 0.664468 15.877 0.951112 15.877 1.25C15.877 1.54888 15.7583 1.83553 15.547 2.04687L9.59383 8L15.547 13.9531Z" fill="#212121" fill-opacity="0.5"/>
</svg>
