<svg width="20" height="20" viewBox="0 0 20 20" fill="none" xmlns="http://www.w3.org/2000/svg">
<path fill-rule="evenodd" clip-rule="evenodd" d="M10 20C4.47715 20 0 15.5228 0 10C0 4.47715 4.47715 0 10 0C12.6522 0 15.1957 1.05357 17.0711 2.92893C18.9464 4.8043 20 7.34784 20 10C20 15.5228 15.5228 20 10 20ZM14.71 6.29C14.8993 6.47777 15.0058 6.73336 15.0058 7C15.0058 7.26664 14.8993 7.52223 14.71 7.71L8.71 13.71C8.52223 13.8993 8.26664 14.0058 8 14.0058C7.73336 14.0058 7.47777 13.8993 7.29 13.71L5.29 11.71C5.03634 11.4563 4.93728 11.0866 5.03012 10.7401C5.12297 10.3936 5.39362 10.123 5.74012 10.0301C6.08663 9.93728 6.45634 10.0363 6.71 10.29L8 11.59L13.29 6.29C13.4778 6.10069 13.7334 5.9942 14 5.9942C14.2666 5.9942 14.5222 6.10069 14.71 6.29ZM10 2C14.4183 2 18 5.58172 18 10C18 12.1217 17.1571 14.1566 15.6569 15.6569C14.1566 17.1571 12.1217 18 10 18C5.58172 18 2 14.4183 2 10C2 5.58172 5.58172 2 10 2Z" fill="#00FF19"/>
</svg>
